<svg width="37" height="17" viewBox="0 0 37 17" fill="none" xmlns="http://www.w3.org/2000/svg">
<path d="M36.8883 10.5677C36.8883 11.9047 36.6977 13.0542 36.3165 14.0162C35.9353 14.9741 35.4128 15.7119 34.749 16.2295C34.0883 16.7431 33.3371 17 32.4953 17C31.6504 17 30.896 16.7431 30.2322 16.2295C29.5715 15.7119 29.0506 14.972 28.6694 14.01C28.2882 13.048 28.0977 11.9006 28.0977 10.5677C28.0977 9.23066 28.2882 8.0832 28.6694 7.12529C29.0506 6.1633 29.5715 5.4255 30.2322 4.9119C30.896 4.39422 31.6504 4.13538 32.4953 4.13538C33.3371 4.13538 34.0883 4.39422 34.749 4.9119C35.4128 5.4255 35.9353 6.1633 36.3165 7.12529C36.6977 8.0832 36.8883 9.23066 36.8883 10.5677ZM35.4303 10.5677C35.4303 9.54861 35.3017 8.69056 35.0444 7.99353C34.7903 7.29241 34.4409 6.76251 33.9962 6.4038C33.5547 6.04101 33.0544 5.85962 32.4953 5.85962C31.9331 5.85962 31.4313 6.04101 30.9897 6.4038C30.5482 6.76251 30.1988 7.29241 29.9415 7.99353C29.6874 8.69056 29.5604 9.54861 29.5604 10.5677C29.5604 11.5867 29.6874 12.4468 29.9415 13.1479C30.1988 13.845 30.5482 14.3749 30.9897 14.7376C31.4313 15.0964 31.9331 15.2757 32.4953 15.2757C33.0544 15.2757 33.5547 15.0964 33.9962 14.7376C34.4409 14.3749 34.7903 13.845 35.0444 13.1479C35.3017 12.4468 35.4303 11.5867 35.4303 10.5677Z" fill="#24125F"/>
<path d="M24.5122 8.26256C24.4169 7.89162 24.2887 7.55941 24.1277 7.26592C23.9699 6.96835 23.7809 6.71563 23.5607 6.50774C23.3405 6.29578 23.089 6.13477 22.8064 6.02471C22.527 5.91465 22.2197 5.85962 21.8844 5.85962C21.3158 5.85962 20.803 6.04101 20.3462 6.4038C19.8893 6.76658 19.5277 7.29853 19.2615 7.99964C18.9986 8.69667 18.8671 9.55064 18.8671 10.5615C18.8671 11.5765 19.0002 12.4346 19.2664 13.1357C19.5327 13.8368 19.8975 14.3687 20.361 14.7315C20.8244 15.0943 21.3519 15.2757 21.9436 15.2757C22.4925 15.2757 22.9707 15.1371 23.3783 14.8599C23.7891 14.5827 24.1063 14.1914 24.3298 13.686C24.5566 13.1764 24.67 12.5772 24.67 11.8884L25.0644 11.9801H22.1753V10.4209H26.1441V11.8456C26.1441 12.8972 25.9633 13.8103 25.6018 14.5848C25.2435 15.3552 24.7472 15.9503 24.1129 16.3702C23.4818 16.79 22.7587 17 21.9436 17C21.0298 17 20.2278 16.7391 19.5376 16.2173C18.8507 15.6956 18.3149 14.9557 17.9304 13.9978C17.5458 13.0358 17.3535 11.8945 17.3535 10.5738C17.3535 9.5751 17.4653 8.67833 17.6888 7.88347C17.9123 7.0886 18.2262 6.41399 18.6304 5.85962C19.038 5.30118 19.5162 4.87521 20.0651 4.58172C20.6173 4.28416 21.2205 4.13538 21.8745 4.13538C22.4202 4.13538 22.928 4.23524 23.398 4.43498C23.8713 4.63471 24.292 4.91801 24.6601 5.28487C25.0315 5.65173 25.3388 6.08789 25.5821 6.59334C25.8253 7.09472 25.9896 7.65112 26.0751 8.26256H24.5122Z" fill="#24125F"/>
<path d="M15.9699 9.31101C15.9699 10.3868 15.7757 11.3117 15.3872 12.0858C14.9987 12.8565 14.4662 13.4502 13.7896 13.8667C13.1163 14.28 12.3506 14.4866 11.4928 14.4866C10.6316 14.4866 9.86279 14.28 9.1862 13.8667C8.51284 13.4502 7.98193 12.8549 7.59345 12.0809C7.20498 11.3068 7.01074 10.3835 7.01074 9.31101C7.01074 8.23521 7.20498 7.31193 7.59345 6.54116C7.98193 5.76711 8.51284 5.17345 9.1862 4.76019C9.86279 4.34365 10.6316 4.13538 11.4928 4.13538C12.3506 4.13538 13.1163 4.34365 13.7896 4.76019C14.4662 5.17345 14.9987 5.76711 15.3872 6.54116C15.7757 7.31193 15.9699 8.23521 15.9699 9.31101ZM14.484 9.31101C14.484 8.49104 14.3529 7.80063 14.0907 7.23977C13.8317 6.67563 13.4756 6.24925 13.0224 5.96062C12.5724 5.66871 12.0625 5.52276 11.4928 5.52276C10.9198 5.52276 10.4083 5.66871 9.95829 5.96062C9.50831 6.24925 9.1522 6.67563 8.88998 7.23977C8.631 7.80063 8.50151 8.49104 8.50151 9.31101C8.50151 10.131 8.631 10.823 8.88998 11.3872C9.1522 11.948 9.50831 12.3744 9.95829 12.6663C10.4083 12.9549 10.9198 13.0993 11.4928 13.0993C12.0625 13.0993 12.5724 12.9549 13.0224 12.6663C13.4756 12.3744 13.8317 11.948 14.0907 11.3872C14.3529 10.823 14.484 10.131 14.484 9.31101Z" fill="#24125F"/>
<rect x="7.81396" y="15.8334" width="7.81387" height="0.989583" fill="#FF0000"/>
<path d="M0 16.8229L0 0H37V1.48437H1.50048V15.5142H6.00678V16.8229H0Z" fill="#24125F"/>
</svg>
