<?xml version="1.0" encoding="UTF-8"?>
<svg width="154px" height="42px" viewBox="0 0 154 42" version="1.1" xmlns="http://www.w3.org/2000/svg" xmlns:xlink="http://www.w3.org/1999/xlink">
    <title>72065098-A16A-430A-8A4E-DB68C9DAF9E6</title>
    <g id="1-Landing" stroke="none" stroke-width="1" fill="none" fill-rule="evenodd">
        <g id="1A1-landing-page" transform="translate(-128.000000, -16.000000)">
            <g id="Group-16" transform="translate(128.000000, 12.000000)">
                <g id="Group-2" transform="translate(0.000000, 4.000000)">
                    <g id="Group-6">
                        <path d="M41.2960894,20.6480447 C41.2960894,32.0516421 32.0516421,41.2960894 20.6480447,41.2960894 C9.24444727,41.2960894 0,32.0516421 0,20.6480447 C0,9.24444727 9.24444727,0 20.6480447,0 C32.0516421,0 41.2960894,9.24444727 41.2960894,20.6480447" id="Fill-18" fill="#FF533F"></path>
                        <path d="M16.2216597,31.4370223 C17.2257729,32.7449785 19.0384134,33.5357884 20.9532107,33.5013991 C22.6920235,33.4700569 24.1976211,32.738739 25.0839821,31.4950634 C25.3665588,31.0986427 25.91254,31.0098398 26.3032829,31.2961275 C26.6941688,31.5827054 26.782018,32.1362724 26.4994412,32.5326931 C25.2881527,34.2324267 23.2779232,35.2308787 20.9842584,35.2723781 C20.7859539,35.2760057 20.5879355,35.2723781 20.391348,35.2617856 C18.1573462,35.1419307 16.0704275,34.1234546 14.8435436,32.5251478 C14.5473745,32.1391745 14.6156222,31.5827054 14.9962066,31.2821977 C15.3767909,30.9816899 15.9254906,31.051049 16.2216597,31.4370223 Z M10.2496325,8.70217873 C13.1027277,7.00723354 16.8501962,7.60128419 19.3626255,10.1469668 C20.3477334,11.1451133 21.1546445,12.1627042 21.8146595,13.1467873 C22.1112041,12.8250624 22.4304539,12.5044423 22.7720035,12.1872565 C25.0739667,10.0494577 28.3867678,9.67306121 30.8280879,11.2719484 C33.3270679,12.9085623 34.1876751,16.0604842 33.0742512,19.497678 C31.8356472,23.3206723 30.3627427,26.4806213 29.6550848,27.9131906 L29.5414548,28.1416541 C29.365187,28.4935624 29.2560509,28.6994953 29.2373596,28.7346287 C28.9788198,29.2201425 28.4866354,29.4956926 27.9782834,29.4956926 C27.7487882,29.4956926 27.5160022,29.4395379 27.2999561,29.321134 C26.6053181,28.9405295 26.3464921,28.0607716 26.7217826,27.3562977 L26.7351181,27.3309712 C26.9144057,26.9889432 28.8451677,23.2613469 30.3577943,18.5925271 C31.0567247,16.4348492 30.6526757,14.6088763 29.2768488,13.7079333 C27.9273481,12.8239674 26.04646,13.0780423 24.7029685,14.3257808 C24.180231,14.8112504 23.7201299,15.3066862 23.3156827,15.7979408 L23.3633179,15.897909 C24.4248913,18.1894139 24.6754568,19.8841074 24.6923808,20.0052474 C24.8178592,20.9073512 24.1990518,21.7456098 23.3094001,21.87301 C22.4201775,21.9996847 21.5976288,21.375888 21.4720073,20.4737842 C21.4700033,20.4602664 21.3993206,20.0105518 21.1753361,19.2789565 C20.6864438,20.399181 20.5338268,21.1563985 20.5307048,21.1728893 C20.3863403,21.9600717 19.6406238,22.476057 18.864575,22.3302288 C18.0882401,22.1839652 17.5765973,21.423917 17.7206757,20.6365895 L17.7283262,20.596872 C17.7923135,20.2759459 18.2280457,18.3061693 19.6968298,15.9254134 C19.0606997,14.8290147 18.2056978,13.6386211 17.0632376,12.4810896 C15.5969862,10.9952374 13.4711505,10.6120211 11.8940146,11.5490946 C10.2861171,12.504306 9.73770354,14.5598315 10.4270477,17.047473 C11.9850114,22.6699143 14.1115625,27.1479302 14.1327378,27.1920414 C14.5249115,28.0117268 14.1878224,28.9987157 13.3795814,29.3964424 C13.1281954,29.520215 12.8607848,29.572452 12.5999557,29.5608438 C12.0220683,29.5354508 11.4760871,29.1973614 11.205815,28.6326215 C11.1139596,28.4405055 8.93518556,23.8591764 7.29509577,17.94 C6.19683796,13.9769538 7.32914806,10.4373174 10.2496325,8.70217873 Z" id="Combined-Shape" fill="#FFFFFE"></path>
                    </g>
                    <path d="M149.7865,7.74301676 C150.792742,7.74301676 151.608393,8.60059104 151.608393,9.65831398 L151.608393,9.65831398 L151.608393,18.792848 C151.619664,18.8764661 151.624788,18.961627 151.624788,19.0485364 L151.624788,19.0485364 L151.626837,21.50586 C151.626837,21.5062714 151.626837,21.50658 151.626837,21.5068885 L151.642976,21.6520375 L151.642976,21.6520375 L151.648356,21.8004262 L151.648356,27.7962466 C151.648356,29.2003727 152.488598,30.1250061 152.759116,30.2928594 C153.69363,30.6310345 154.211097,31.6911231 153.918036,32.6918664 C153.620877,33.7065975 152.602338,34.2787594 151.637084,33.9777136 C151.630936,33.9757594 151.623763,33.9739081 151.617615,33.9715425 C150.751755,33.691684 149.853105,32.9368582 149.164516,31.8738898 C148.869406,32.1521027 148.571222,32.4298012 148.264841,32.6918664 L148.264841,32.6918664 L148.260742,32.6814784 C146.833354,34.4095862 144.89977,35.273743 142.461016,35.273743 C140.169818,35.273743 138.221889,34.4190486 136.618255,32.7080141 C135.013596,30.997391 134.212291,28.8896589 134.212291,26.3836866 C134.212291,23.8781257 135.013596,21.7702908 136.618255,20.0593591 C138.221889,18.348736 140.169818,17.4934245 142.461016,17.4934245 C144.735821,17.4934245 146.571034,18.2450619 147.965632,19.7483367 L147.965632,19.7483367 L147.965632,9.65831398 C147.965632,8.60059104 148.781283,7.74301676 149.7865,7.74301676 Z M105.428766,17.2067039 C105.686371,17.2067039 105.933641,17.2198645 106.170768,17.2460837 C107.085023,17.3472644 107.699252,18.3203752 107.506431,19.3018858 L107.47334,19.4420655 C107.242242,20.2786301 106.480335,20.7850577 105.712591,20.6082569 C105.412593,20.5391893 105.103888,20.5046045 104.786858,20.5046045 C103.802273,20.5046045 103.005343,20.9410463 102.395493,21.8131138 C101.785642,22.6857934 101.480669,23.7790405 101.480669,25.0930589 L101.480669,32.5134882 C101.480669,33.5627645 100.719049,34.4134078 99.7794402,34.4134078 C98.839832,34.4134078 98.0782123,33.5627645 98.0782123,32.5134882 L98.0782123,19.4651221 C98.0782123,18.4554295 98.8112196,17.6368205 99.7153263,17.6368205 L99.8436503,17.6368205 C100.747756,17.6368205 101.480669,18.4554295 101.480669,19.4651221 C102.550419,17.95951 103.866484,17.2067039 105.428766,17.2067039 Z M111.189241,7.74301676 C112.253424,7.74301676 113.11602,8.58685891 113.11602,9.62764478 L113.11602,32.5286786 C113.11602,33.5695657 112.253424,34.4134078 111.189241,34.4134078 C110.125167,34.4134078 109.26257,33.5695657 109.26257,32.5286786 L109.26257,9.62764478 C109.26257,8.58685891 110.125167,7.74301676 111.189241,7.74301676 Z M129.050279,18.105343 C130.161436,18.105343 131.060997,18.9322303 131.060997,19.9522033 L131.060997,32.5665476 C131.060997,33.5865206 130.161436,34.4134078 129.050279,34.4134078 C127.939123,34.4134078 127.03843,33.5865206 127.03843,32.5665476 L127.03843,19.9522033 C127.03843,18.9322303 127.939123,18.105343 129.050279,18.105343 Z M66.7101157,17.2067069 C68.309938,17.2051845 69.6346624,17.7828167 70.6846757,18.9393038 C71.7340121,20.0964022 72.2597439,21.6291806 72.2611944,23.5382503 L72.2611944,23.5382503 L72.2681564,32.4892564 C72.2681564,33.5378387 71.4997196,34.3874236 70.550656,34.3884426 C69.6009157,34.3890539 68.8307383,33.540386 68.8301582,32.4924151 L68.8301582,32.4924151 L68.8237763,24.2219533 C68.8228093,23.147694 68.5192831,22.2654013 67.913681,21.5734451 C67.307402,20.8819983 66.5504719,20.5363768 65.6424072,20.5373957 C64.7340523,20.5380071 63.9772189,20.8849532 63.3726805,21.5776227 C62.7676585,22.2709036 62.4657761,23.1538075 62.466453,24.2277612 L62.466453,24.2277612 L62.4728349,32.498223 C62.4728349,33.5471109 61.7040113,34.3963902 60.7552378,34.3974091 C59.8058842,34.3983261 59.0356102,33.5493526 59.0347399,32.5014836 L59.0347399,32.5014836 L59.0283581,24.2309199 C59.0277779,23.1569662 58.7239615,22.2743679 58.1182627,21.5824116 C57.5122738,20.8910667 56.7551503,20.5453434 55.8470856,20.5463623 C54.9390209,20.5472793 54.1820908,20.8942254 53.577649,21.5865893 C53.3429697,21.8551796 53.1542207,22.1520962 53.0112085,22.4775429 L53.0112085,22.4775429 L53.0112085,31.6986676 L53.0051167,31.9683787 L53.0054067,32.5162581 C53.0054067,33.56321 52.2365831,34.4124893 51.2878097,34.4134073 C50.8996752,34.413712 50.5411293,34.2721825 50.2532677,34.0324279 C50.2439849,34.0246841 50.2347022,34.0170421 50.2256128,34.0089925 C50.2119788,33.9974786 50.1986349,33.985659 50.185581,33.9733299 C49.8034415,33.6257724 49.5598663,33.0993925 49.5594795,32.5104502 L49.5594795,32.5104502 L49.5578357,30.0759175 L49.5578357,30.0759175 C49.5443951,29.9803418 49.5377231,29.8830339 49.5377231,29.7841975 L49.5377231,29.7841975 L49.5377231,23.8441335 C49.5377231,22.4531904 48.7442422,21.5371711 48.4894503,21.3708815 C47.6072999,21.035755 47.1190858,19.9856443 47.3959242,18.9942242 C47.6762436,17.9889465 48.6369105,17.422115 49.5481662,17.7202543 C49.554258,17.7221903 49.5606399,17.7241263 49.5667317,17.7263679 C50.383226,18.003721 51.2314364,18.7515147 51.881615,19.8045802 C52.5520996,19.1408484 53.2342843,18.4815998 54.0234139,18.0312322 C54.8773293,17.4885494 55.8412839,17.2166985 56.9150842,17.2157814 C57.8661783,17.2147625 58.7582883,17.4528868 59.5913176,17.9292372 C60.4237667,18.4061989 61.0893198,19.0733951 61.5876869,19.9323543 C63.0133611,18.1173319 64.7204184,17.2083432 66.7101157,17.2067069 Z M90.4305285,17.2067044 C90.8418345,17.2064127 91.2217854,17.3418778 91.5268323,17.571359 C91.5366692,17.5787711 91.5465061,17.5861832 91.5560356,17.5937903 C91.570586,17.6049084 91.5848291,17.6162215 91.5985598,17.6279248 C92.0034103,17.9605896 92.2617318,18.4644145 92.2620392,19.028121 L92.2620392,19.028121 L92.2637812,21.3583355 L92.2637812,21.3583355 C92.2780242,21.4499135 92.2851969,21.5429543 92.2851969,21.6375556 L92.2851969,21.6375556 L92.2851969,27.3230916 C92.2851969,28.6545313 93.1260483,29.5312998 93.3958462,29.6903665 C94.330763,30.011133 94.8481233,31.0163446 94.5547578,31.9652831 C94.2577034,32.9273877 93.2396851,33.4700284 92.274028,33.1845666 L92.274028,33.1845666 L92.2543541,33.178715 C91.389013,32.9133438 90.4902673,32.1974951 89.8012734,31.1895527 C89.5060634,31.453461 89.2084967,31.7166866 88.9016055,31.9652831 L88.9016055,31.9652831 L88.898224,31.9554329 C87.4703343,33.5940828 85.5371755,34.4134078 83.0980303,34.4134078 C80.8065414,34.4134078 78.8585248,33.6029578 77.2550051,31.9805948 C75.6509731,30.358622 74.849162,28.3598045 74.849162,25.9836547 C74.849162,23.6077001 75.6509731,21.6089801 77.2550051,19.9866171 C78.8585248,18.3646443 80.8065414,17.5536092 83.0980303,17.5536092 C85.3753787,17.5536092 87.2118078,18.2677999 88.6070103,19.6963766 L88.6070103,19.6963766 L88.6106992,19.5470626 L88.6103918,19.0245126 C88.6103918,18.0205688 89.4251138,17.2076806 90.4305285,17.2067044 Z M122.509097,18.4331345 C123.268841,19.0947076 123.298104,20.2469195 122.571958,20.9442177 L117.733008,25.5942555 L123.356629,31.0951185 C124.093613,31.8157949 124.060015,32.9936115 123.282931,33.6730978 C122.543779,34.3202998 121.410124,34.2663578 120.738168,33.552361 L113.11602,25.4521645 L120.086804,18.5122764 C120.743587,17.8581924 121.808963,17.8233781 122.509097,18.4331345 Z M143.076853,20.7704731 C140.124731,20.7704731 137.731064,23.287142 137.731064,26.3915033 C137.731064,29.4958645 140.124731,32.0125334 143.076853,32.0125334 C145.259436,32.0125334 147.136661,30.6372056 147.966657,28.6655459 C148.112163,28.3227424 148.224878,27.9615286 148.30173,27.5866356 C148.361162,27.3001947 148.399075,27.0054228 148.414445,26.704377 C148.420593,26.6007029 148.422642,26.4965145 148.422642,26.3915033 C148.422642,25.9813322 148.38063,25.5815491 148.30173,25.196371 C148.224878,24.8215808 148.112163,24.4602641 147.966657,24.1174607 C147.918497,24.0008273 147.865213,23.8865594 147.808855,23.7744515 C146.913279,21.9879241 145.130325,20.7704731 143.076853,20.7704731 Z M83.7139647,20.6609194 C80.761558,20.6609194 78.3680111,23.047407 78.3680111,25.9909693 C78.3680111,28.9346291 80.761558,31.3211167 83.7139647,31.3211167 C85.8967352,31.3211167 87.7738441,30.0169846 88.6042437,28.147293 C88.7487234,27.8223328 88.8615405,27.4797202 88.9389038,27.124234 C89.018009,26.758995 89.0599183,26.3800048 89.0599183,25.9909693 C89.0599183,25.6021288 89.018009,25.2229435 88.9389038,24.8577047 C88.8615405,24.502316 88.7487234,24.1598008 88.6042437,23.8347431 C87.7738441,21.9650515 85.8967352,20.6609194 83.7139647,20.6609194 Z M129.050279,9.46368715 C129.758613,9.46368715 130.36511,9.69604465 130.872033,10.1605613 C131.377824,10.6254746 131.631285,11.1830136 131.631285,11.8330791 C131.631285,12.4837396 131.377824,13.0413777 130.872033,13.5057952 C130.36511,13.9707085 129.758613,14.2026693 129.050279,14.2026693 C128.340814,14.2026693 127.734317,13.9707085 127.228526,13.5057952 C126.721603,13.0413777 126.469274,12.4837396 126.469274,11.8330791 C126.469274,11.1830136 126.721603,10.6254746 127.228526,10.1605613 C127.734317,9.69604465 128.340814,9.46368715 129.050279,9.46368715 Z" id="Combined-Shape-Copy-3" fill="#FF533F" fill-rule="nonzero"></path>
                </g>
            </g>
        </g>
    </g>
</svg>